<?xml version="1.0" encoding="utf-8"?>
<!-- Generator: Adobe Illustrator 26.5.0, SVG Export Plug-In . SVG Version: 6.00 Build 0)  -->
<svg version="1.1" id="Layer_2_00000024695641035251810980000005755832113851159169_"
	 xmlns="http://www.w3.org/2000/svg" xmlns:xlink="http://www.w3.org/1999/xlink" x="0px" y="0px" viewBox="0 0 350.2 476.5"
	 style="enable-background:new 0 0 350.2 476.5;" xml:space="preserve">
<style type="text/css">
	.st0{opacity:0.3;fill:#D9B8C4;enable-background:new    ;}
	.st1{fill:#4C212A;}
</style>
<image style="overflow:visible;opacity:0.8;enable-background:new    ;" width="269" height="555" xlink:href="D889430BC70D7A0C.jpeg"  transform="matrix(0.74 0 0 0.74 75.0999 29.26)">
</image>
<rect x="35.4" class="st0" width="279.4" height="476.5"/>
<g>
	<path class="st1" d="M25.5,345.7c2.4-6.2,4.8-14.4-4.1-14.4h-9.8c0.8,5.4,2.2,11.3,3.3,14.4H2.2c1.6-4.4,3.8-14.6,3.8-20.6
		S3.8,309,2.2,304.6h16.5c12.8,0,17.2,4.8,17.2,15.5c0,5.1-2.7,7.9-5.3,9.5c5,3.5,6.4,13.8,7.5,16.2L25.5,345.7L25.5,345.7z
		 M21.8,325.5c4.9,0,8.9-0.9,8.9-4.9c0-5-2.9-5.6-12.3-5.6h-7.3v10.6L21.8,325.5L21.8,325.5z"/>
	<path class="st1" d="M55.2,337.6c8.4,0,11.3-0.3,15-2.4l-1.4,12.4h-29c1.6-4.4,3.8-14.8,3.8-20.6s-2.2-16.2-3.8-20.6h27.9l1.3,12.3
		c-1.8-1.6-7.4-2.4-14.6-2.4h-5.7v7.5l14.4-0.1v5.9l-14.4,0.1v7.8L55.2,337.6L55.2,337.6z"/>
	<path class="st1" d="M158.1,125.8c8.4,0,11.3-0.3,15-2.4l-1.4,12.4h-29c1.6-4.4,3.8-14.8,3.8-20.6s-2.2-16.2-3.8-20.6h27.9
		l1.3,12.3c-1.8-1.6-7.4-2.3-14.6-2.3h-5.7v7.5L166,112v5.9l-14.4,0.1v7.8H158.1L158.1,125.8z"/>
	<path class="st1" d="M213,94.6c-1.6,4.4-3.8,14.8-3.8,20.6s2.2,16.2,3.8,20.6h-15.9c0-8.9-3-15.6-4.6-17.9l-7.1-9.9
		c0,13,2.2,23.4,3.8,27.8h-12.7c1.6-4.4,3.8-14.8,3.8-20.6s-2.2-16.2-3.8-20.6h15.9c0,15.6,2.5,17.1,4.1,19.4l7.6,10.8
		c0-15.3-2.2-25.7-3.8-30.1L213,94.6L213,94.6z"/>
	<path class="st1" d="M88.8,180.6c0,7.5-5.2,12.1-15.2,12.1h-9c0.8,5.1,2.1,10.6,3.2,13.5H55.1c1.6-4.4,3.8-14.6,3.8-20.6
		s-2.2-16.2-3.8-20.6h16.5C84.3,165.1,88.8,169.9,88.8,180.6z M70.2,186.9c9,0,13.3-0.7,13.3-5.8s-2.8-5.6-12.3-5.6h-7.3v10.3
		c0,0.4,0,0.8,0,1.2L70.2,186.9L70.2,186.9z"/>
	<path class="st1" d="M109,206.3c0.4-2.4,0.9-6.9,0.5-12H98c-0.4,5.1,0,9.6,0.4,12H81.9c4.3-5.4,8.7-11.5,11.2-17.6l1.2-3
		c2.5-6.2,2.1-14.5,0.9-20.5h17c-1.2,6-1.6,14.3,0.9,20.5l1.2,3c2.5,6.2,6.9,12.2,11.2,17.6H109L109,206.3z M108.7,188.4
		c-0.4-1.8-0.9-3.6-1.6-5.4l-3.2-8.3l-3.2,8.3c-0.7,1.8-1.2,3.6-1.6,5.4H108.7L108.7,188.4z"/>
	<path class="st1" d="M146.5,182.9c5.3,0.2,12.8,0.8,12.8,10.5c0,7.2-5.1,13.4-16.7,13.4c-5.1,0-11.3-1.4-16.1-3.8l1.2-11.1
		c3.8,2.5,10.2,5.1,16.5,5.1c5.4,0,8.2-1.1,8.2-4c0-3.1-2-4.1-6.7-4.2l-7.4-0.2c-5-0.2-12-1.3-12-11.3c0-8.3,5.3-12.8,16-12.8
		c7.6,0,13.8,1.5,15.8,2.2l-1.3,11.5c-2.1-1.2-9.2-4-17.4-4c-3.7,0-6.5,1.1-6.5,4.1c0,3.5,2.8,4.2,6.2,4.3L146.5,182.9L146.5,182.9z
		"/>
	<path class="st1" d="M181.5,182.9c5.3,0.2,12.8,0.8,12.8,10.5c0,7.2-5.1,13.4-16.7,13.4c-5.1,0-11.3-1.4-16.1-3.8l1.2-11.1
		c3.8,2.5,10.2,5.1,16.5,5.1c5.4,0,8.2-1.1,8.2-4c0-3.1-2-4.1-6.7-4.2l-7.4-0.2c-5-0.2-12-1.3-12-11.3c0-8.3,5.3-12.8,15.9-12.8
		c7.6,0,13.8,1.5,15.8,2.2l-1.3,11.5c-2.1-1.2-9.2-4-17.4-4c-3.7,0-6.5,1.1-6.5,4.1c0,3.5,2.8,4.2,6.2,4.3L181.5,182.9L181.5,182.9z
		"/>
	<path class="st1" d="M196.3,206.3c1.6-4.4,3.8-14.8,3.8-20.6s-2.2-16.2-3.8-20.6H209c-1.6,4.4-3.8,14.8-3.8,20.6s2.2,16.2,3.8,20.6
		H196.3z"/>
	<path class="st1" d="M230,206.9c-12.2,0-19.2-5.9-19.2-21.1s7-21.1,19.2-21.1c12.2,0,19.2,6.6,19.2,21.1S242.1,206.9,230,206.9z
		 M230,196.8c8.5,0,14.1-3.8,14.1-11.1s-5.6-11.1-14.1-11.1s-14.1,3.8-14.1,11.1S221.5,196.8,230,196.8L230,196.8z"/>
	<path class="st1" d="M289,165.1c-1.6,4.4-3.8,14.8-3.8,20.6s2.2,16.2,3.8,20.6h-16c0-8.9-3-15.6-4.6-17.9l-7.1-9.9
		c0,13,2.2,23.4,3.8,27.8h-12.7c1.6-4.4,3.8-14.8,3.8-20.6s-2.2-16.2-3.8-20.6h15.9c0,15.6,2.5,17.1,4.1,19.4l7.6,10.8
		c0-15.3-2.2-25.7-3.8-30.1H289V165.1z"/>
	<path class="st1" d="M133.1,245.6v7.9l14.4-0.1v5.9l-14.2,0.1c0.6,5.8,2.3,13.7,3.7,17.4h-12.8c1.6-4.4,3.8-14.8,3.8-20.6
		s-2.2-16.2-3.8-20.6h27.9l1.3,12.3c-1.8-1.6-7.4-2.4-14.6-2.4L133.1,245.6L133.1,245.6z"/>
	<path class="st1" d="M174.5,277.4c-12.2,0-19.2-5.9-19.2-21.1s7-21.1,19.2-21.1c12.2,0,19.2,6.6,19.2,21.1S186.6,277.4,174.5,277.4
		z M174.5,267.3c8.5,0,14.1-3.8,14.1-11.1s-5.6-11.1-14.1-11.1s-14.1,3.8-14.1,11.1C160.4,263.5,166,267.3,174.5,267.3L174.5,267.3z
		"/>
	<path class="st1" d="M218,276.4c2.4-6.2,4.8-14.4-4.1-14.4h-9.8c0.8,5.4,2.2,11.3,3.3,14.4h-12.7c1.6-4.4,3.8-14.6,3.8-20.6
		s-2.2-16.2-3.8-20.6h16.5c12.8,0,17.2,4.8,17.2,15.5c0,5.1-2.7,7.9-5.3,9.5c5,3.5,6.4,13.8,7.5,16.2H218L218,276.4z M214.3,256.1
		c4.9,0,8.9-0.9,8.9-4.9c0-5-2.9-5.6-12.3-5.6h-7.3v10.6h10.7V256.1z"/>
	<path class="st1" d="M111.6,306.5c-1.6,4.4-3.8,14.8-3.8,20.6s2.2,16.2,3.8,20.6H95.7c0-8.9-3-15.6-4.6-17.9l-7.1-9.9
		c0,13,2.2,23.4,3.8,27.8H75.1c1.6-4.4,3.8-14.8,3.8-20.6s-2.2-16.2-3.8-20.6H91c0,15.6,2.5,17.1,4.1,19.4l7.6,10.8
		c0-15.3-2.2-25.7-3.8-30.1L111.6,306.5L111.6,306.5z"/>
	<path class="st1" d="M130.8,347.9c-12.2,0-19.2-5.9-19.2-21.1s7-21.1,19.2-21.1c12.2,0,19.2,6.6,19.2,21.1S143,347.9,130.8,347.9z
		 M130.8,337.8c8.5,0,14.1-3.8,14.1-11.1s-5.6-11.1-14.1-11.1s-14.1,3.8-14.1,11.1S122.4,337.8,130.8,337.8L130.8,337.8z"/>
	<path class="st1" d="M170.2,329.4c3.7-9.3,2.5-19.1,2-23.2h16.7c-4.3,5.4-8.7,11.5-11.2,17.6l-1.2,3c-2.5,6.2-2.1,14.5-0.9,20.5
		h-16.7c1.2-6,1.6-14.3-0.9-20.5l-1.2-3c-2.5-6.2-6.9-12.2-11.2-17.6h16.7c-0.6,4.1-1.5,13.9,2.2,23.2l2.9,7.3L170.2,329.4
		L170.2,329.4z"/>
	<path class="st1" d="M206.6,337.6c8.4,0,11.3-0.3,15-2.4l-1.4,12.4h-29c1.6-4.4,3.8-14.8,3.8-20.6s-2.2-16.2-3.8-20.6h28l1.3,12.3
		c-1.8-1.6-7.4-2.4-14.6-2.4h-5.7v7.5l14.4-0.1v5.9l-14.4,0.1v7.8L206.6,337.6L206.6,337.6z"/>
	<path class="st1" d="M246.5,347.3c2.4-6.2,4.8-14.4-4.1-14.4h-9.8c0.8,5.4,2.2,11.3,3.3,14.4h-12.7c1.6-4.4,3.8-14.6,3.8-20.6
		s-2.2-16.2-3.8-20.6h16.5c12.8,0,17.2,4.8,17.2,15.5c0,5.1-2.7,7.9-5.3,9.5c5,3.5,6.4,13.8,7.5,16.2H246.5L246.5,347.3z M242.8,327
		c4.9,0,8.9-0.9,8.9-4.9c0-5-2.9-5.6-12.3-5.6h-7.3V327H242.8L242.8,327z"/>
	<path class="st1" d="M261.1,347.3c1.6-4.4,3.8-14.8,3.8-20.6s-2.2-16.2-3.8-20.6h12.7c-1.6,4.4-3.8,14.8-3.8,20.6
		s2.2,16.2,3.8,20.6H261.1z"/>
	<path class="st1" d="M314.2,306.1c-1.6,4.4-3.8,14.8-3.8,20.6s2.2,16.2,3.8,20.6h-16c0-8.9-3-15.6-4.6-17.9l-7.1-9.9
		c0,13,2.2,23.4,3.8,27.8h-12.7c1.6-4.4,3.8-14.8,3.8-20.6s-2.2-16.2-3.8-20.6h16c0,15.6,2.5,17.1,4.1,19.4l7.6,10.8
		c0-15.3-2.2-25.7-3.8-30.1L314.2,306.1L314.2,306.1z"/>
	<path class="st1" d="M316.2,326.7c0-14.4,7-20.9,19.2-20.9c7.3,0,13.4,1.5,15.5,2.1l-1.3,11.4c-1.6-1.1-8.1-3.6-14.2-3.6
		c-8.5,0-14.1,3.8-14.1,11s5.6,11,14.1,11c7.7,0,12.2-3.3,14.2-5.2h-17.5v-5.8h20.2v16c-2.5,1.8-7.5,4.9-16.9,4.9
		C323.2,347.6,316.2,341.7,316.2,326.7L316.2,326.7z"/>
</g>
</svg>
